name analog
datacolumns 19
datarows 23
range 0.15 0.161
endheader
time	ground_force_vx	ground_force_vy	ground_force_vz	ground_force_px	ground_force_py	ground_force_pz	l_ground_force_vx	l_ground_force_vy	l_ground_force_vz	l_ground_force_px	l_ground_force_py	l_ground_force_pz	ground_torque_x	ground_torque_y	ground_torque_z	l_ground_torque_x	l_ground_torque_y	l_ground_torque_z
0.15	-0.0	-0.0	-0.0	-0.0	-0.0	-0.0	-2.0454392433166504	3.9702517986297607	-879.15380859375	-0.0	-0.0	-0.0	-0.0	-0.0	-0.0	247372.71875	-9548.0576171875	-2492.79296875
0.1505	-0.0	-0.0	-0.0	-0.0	-0.0	-0.0	-2.83597469329834	3.622108459472656	-880.9095458984375	-0.0	-0.0	-0.0	-0.0	-0.0	-0.0	247861.25	-9593.2890625	-2757.69091796875
0.151	-0.0	-0.0	-0.0	-0.0	-0.0	-0.0	-3.0152010917663574	3.620227813720703	-882.2985229492188	-0.0	-0.0	-0.0	-0.0	-0.0	-0.0	248585.0625	-9773.73046875	-2760.626220703125
0.1515	-0.0	-0.0	-0.0	-0.0	-0.0	-0.0	-3.1059181690216064	3.884082078933716	-881.6241455078125	-0.0	-0.0	-0.0	-0.0	-0.0	-0.0	248833.234375	-10301.103515625	-2672.3779296875
0.152	-0.0	-0.0	-0.0	-0.0	-0.0	-0.0	-1.7752984762191772	4.06710958480835	-880.5689697265625	-0.0	-0.0	-0.0	-0.0	-0.0	-0.0	248883.46875	-10637.7841796875	-2671.0791015625
0.1525	-0.0	-0.0	-0.0	-0.0	-0.0	-0.0	-0.3548431396484375	3.798969030380249	-878.81005859375	-0.0	-0.0	-0.0	-0.0	-0.0	-0.0	248569.171875	-11136.9921875	-2432.8837890625
0.153	-0.0	-0.0	-0.0	-0.0	-0.0	-0.0	1.7681329250335691	3.6175553798675537	-873.23291015625	-0.0	-0.0	-0.0	-0.0	-0.0	-0.0	247460.828125	-12243.236328125	-1984.0938720703125
0.1535	-0.0	-0.0	-0.0	-0.0	-0.0	-0.0	3.727111577987671	2.03139877319336	-869.7416381835938	-0.0	-0.0	-0.0	-0.0	-0.0	-0.0	247081.234375	-12830.4814453125	-1657.177734375
0.154	-0.0	-0.0	-0.0	-0.0	-0.0	-0.0	4.973073959350586	2.121032238006592	-867.2770385742188	-0.0	-0.0	-0.0	-0.0	-0.0	-0.0	246680.40625	-13522.5	-1361.351318359375
0.1545	-0.0	-0.0	-0.0	-0.0	-0.0	-0.0	6.6491312980651855	3.0898725986480717	-864.1502685546875	-0.0	-0.0	-0.0	-0.0	-0.0	-0.0	246618.5625	-14589.396484375	-1151.3839111328125
0.155	-0.0	-0.0	-0.0	-0.0	-0.0	-0.0	7.4517059326171875	4.766513824462891	-863.4575805664062	-0.0	-0.0	-0.0	-0.0	-0.0	-0.0	246923.515625	-15480.4599609375	-1062.354736328125
0.1555	-0.0	-0.0	-0.0	-0.0	-0.0	-0.0	8.332775115966797	6.359161376953125	-863.7833251953125	-0.0	-0.0	-0.0	-0.0	-0.0	-0.0	247955.65625	-16130.615234375	-1208.17919921875
0.156	-0.0	-0.0	-0.0	-0.0	-0.0	-0.0	8.253207206726074	8.477336883544922	-864.1380615234375	-0.0	-0.0	-0.0	-0.0	-0.0	-0.0	248503.515625	-17122.80859375	-1178.5386962890625
0.1565	-0.0	-0.0	-0.0	-0.0	-0.0	-0.0	8.343646049499512	10.336844444274902	-865.55322265625	-0.0	-0.0	-0.0	-0.0	-0.0	-0.0	249192.75	-17878.890625	-1356.52490234375
0.157	-0.0	-0.0	-0.0	-0.0	-0.0	-0.0	7.990713596343994	12.794896125793455	-868.3201904296875	-0.0	-0.0	-0.0	-0.0	-0.0	-0.0	250176.0625	-18707.841796875	-1618.079833984375
0.1575	-0.0	-0.0	-0.0	-0.0	-0.0	-0.0	8.250102996826172	13.77646255493164	-870.4281616210938	-0.0	-0.0	-0.0	-0.0	-0.0	-0.0	251383.90625	-19395.53515625	-1475.568603515625
0.158	-0.0	-0.0	-0.0	-0.0	-0.0	-0.0	8.163178443908691	15.360858917236328	-872.551025390625	-0.0	-0.0	-0.0	-0.0	-0.0	-0.0	252290.734375	-19860.609375	-1649.686767578125
0.1585	-0.0	-0.0	-0.0	-0.0	-0.0	-0.0	8.59749984741211	15.7305269241333	-875.9993896484375	-0.0	-0.0	-0.0	-0.0	-0.0	-0.0	253584.96875	-20065.916015625	-1650.4537353515625
0.159	-0.0	-0.0	-0.0	-0.0	-0.0	-0.0	8.697463989257812	16.164764404296875	-877.4104614257812	-0.0	-0.0	-0.0	-0.0	-0.0	-0.0	254154.625	-20119.365234375	-1561.2662353515625
0.1595	-0.0	-0.0	-0.0	-0.0	-0.0	-0.0	9.131275177001951	15.97834587097168	-879.869873046875	-0.0	-0.0	-0.0	-0.0	-0.0	-0.0	254826.609375	-20326.044921875	-1386.3037109375
0.16	-0.0	-0.0	-0.0	-0.0	-0.0	-0.0	9.131149291992188	14.76380443572998	-882.3300170898438	-0.0	-0.0	-0.0	-0.0	-0.0	-0.0	255617.078125	-20382.1953125	-1411.602783203125
0.1605	-0.0	-0.0	-0.0	-0.0	-0.0	-0.0	8.155153274536133	14.562726020812988	-885.43212890625	-0.0	-0.0	-0.0	-0.0	-0.0	-0.0	256488.3125	-20202.529296875	-1417.156494140625
0.161	-0.0	-0.0	-0.0	-0.0	-0.0	-0.0	7.540416717529297	13.515362739562988	-890.685791015625	-0.0	-0.0	-0.0	-0.0	-0.0	-0.0	256952.09375	-19885.95703125	-1383.2528076171875
